<svg width="22" height="22" viewBox="0 0 22 22" fill="none" xmlns="http://www.w3.org/2000/svg">
<path d="M20.4287 15.7142V6.28566C20.4287 5.41614 19.6859 4.71423 18.7658 4.71423H3.23442C2.31429 4.71423 1.57153 5.41614 1.57153 6.28566V15.7142C1.57153 16.5838 2.31429 17.2857 3.23442 17.2857H18.7658C19.6859 17.2857 20.4287 16.5838 20.4287 15.7142ZM18.9764 6.17042C19.3423 6.51614 19.1427 6.87233 18.9432 7.05042L14.4423 10.9476L18.7658 15.2009C18.8988 15.3476 18.9875 15.578 18.8323 15.7352C18.6882 15.9028 18.3556 15.8923 18.2115 15.7876L13.3669 11.8799L10.9946 13.9228L8.63326 11.8799L3.78872 15.7876C3.6446 15.8923 3.31202 15.9028 3.16791 15.7352C3.0127 15.578 3.10139 15.3476 3.23442 15.2009L7.55793 10.9476L3.05705 7.05042C2.8575 6.87233 2.65795 6.51614 3.02379 6.17042C3.38962 5.82471 3.76654 5.99233 4.07695 6.24376L10.9946 11.5238L17.9233 6.24376C18.2337 5.99233 18.6106 5.82471 18.9764 6.17042Z" fill="#151515"/>
</svg>
