<svg width="22" height="22" viewBox="0 0 22 22" fill="none" xmlns="http://www.w3.org/2000/svg">
<path fill-rule="evenodd" clip-rule="evenodd" d="M11 19.4854L11.6953 20.1511C11.6041 20.239 11.4956 20.3088 11.3762 20.3564C11.2568 20.404 11.1288 20.4286 10.9995 20.4286C10.8702 20.4286 10.7421 20.404 10.6227 20.3564C10.5033 20.3088 10.3949 20.239 10.3036 20.1511L10.2977 20.1445L10.281 20.1285L10.2201 20.0691C9.87393 19.7267 9.53341 19.379 9.19872 19.0263C8.35839 18.1423 7.55375 17.2277 6.78657 16.2845C5.9105 15.2002 5.01479 13.9745 4.33416 12.7639C3.66827 11.5769 3.14282 10.2908 3.14282 9.11416C3.14282 4.83459 6.67068 1.57141 11 1.57141C15.3293 1.57141 18.8571 4.83459 18.8571 9.11416C18.8571 10.2908 18.3317 11.5769 17.6658 12.763C16.9851 13.9755 16.0904 15.2002 15.2134 16.2845C14.1402 17.6041 12.9941 18.8675 11.7798 20.0691L11.7189 20.1285L11.7022 20.1445L11.6963 20.1501L11 19.4854ZM11 11.9427C11.7814 11.9427 12.5308 11.6447 13.0834 11.1142C13.636 10.5838 13.9464 9.86433 13.9464 9.11416C13.9464 8.36399 13.636 7.64454 13.0834 7.11409C12.5308 6.58363 11.7814 6.28563 11 6.28563C10.2185 6.28563 9.46909 6.58363 8.91653 7.11409C8.36396 7.64454 8.05354 8.36399 8.05354 9.11416C8.05354 9.86433 8.36396 10.5838 8.91653 11.1142C9.46909 11.6447 10.2185 11.9427 11 11.9427Z" fill="#151515"/>
</svg>
