<svg width="22" height="22" viewBox="0 0 22 22" fill="none" xmlns="http://www.w3.org/2000/svg">
<path fill-rule="evenodd" clip-rule="evenodd" d="M15.4434 20.4259C14.0834 20.3758 10.2291 19.8433 6.1925 15.8084C2.15685 11.7727 1.62512 7.92009 1.57412 6.55941C1.49857 4.48582 3.08714 2.47171 4.92221 1.68514C5.14319 1.58974 5.38518 1.55342 5.62444 1.57974C5.8637 1.60606 6.092 1.69412 6.28695 1.83528C7.79807 2.93629 8.84075 4.60196 9.73609 5.91165C9.93309 6.19939 10.0173 6.54954 9.97273 6.89538C9.92814 7.24121 9.75785 7.55856 9.49431 7.78695L7.65168 9.15518C7.56266 9.21946 7.5 9.31385 7.47533 9.42083C7.45066 9.5278 7.46567 9.6401 7.51757 9.73685C7.93502 10.4951 8.67736 11.6244 9.52737 12.4743C10.3783 13.3241 11.5608 14.1154 12.3721 14.58C12.4738 14.637 12.5935 14.653 12.7066 14.6246C12.8198 14.5961 12.9177 14.5254 12.9803 14.427L14.1797 12.6017C14.4003 12.3089 14.7256 12.1127 15.0875 12.0542C15.4495 11.9958 15.82 12.0797 16.1215 12.2882C17.4504 13.2079 19.0012 14.2325 20.1364 15.6857C20.2891 15.882 20.3862 16.1157 20.4176 16.3624C20.449 16.6091 20.4135 16.8596 20.3149 17.0879C19.5244 18.9321 17.5241 20.5024 15.4434 20.4259Z" fill="#151515"/>
</svg>
