<svg width="24" height="24" viewBox="0 0 24 24" fill="none" xmlns="http://www.w3.org/2000/svg">
<g clip-path="url(#clip0_742_4843)">
<path d="M22 15.75C21.6686 15.7505 21.351 15.8824 21.1167 16.1167C20.8824 16.351 20.7505 16.6686 20.75 17V20C20.7495 20.1988 20.6703 20.3892 20.5297 20.5297C20.3892 20.6703 20.1987 20.7495 20 20.75H4C3.80125 20.7495 3.61079 20.6703 3.47025 20.5297C3.32972 20.3892 3.25053 20.1988 3.25 20V17C3.25 16.6685 3.1183 16.3505 2.88388 16.1161C2.64946 15.8817 2.33152 15.75 2 15.75C1.66848 15.75 1.35054 15.8817 1.11612 16.1161C0.881696 16.3505 0.75 16.6685 0.75 17V20C0.751059 20.8616 1.09381 21.6877 1.70307 22.2969C2.31234 22.9062 3.13837 23.2489 4 23.25H20C20.8616 23.2489 21.6877 22.9062 22.2969 22.2969C22.9062 21.6877 23.2489 20.8616 23.25 20V17C23.2495 16.6686 23.1176 16.351 22.8833 16.1167C22.649 15.8824 22.3314 15.7505 22 15.75Z" fill="#151515"/>
<path d="M11.9991 0.75C11.6677 0.750529 11.3501 0.882395 11.1158 1.1167C10.8815 1.35101 10.7496 1.66864 10.7491 2V13.331L6.79909 10.04C6.54434 9.82817 6.21596 9.72606 5.886 9.75605C5.55605 9.78605 5.25147 9.94571 5.03909 10.2C4.82726 10.4548 4.72515 10.7831 4.75514 11.1131C4.78514 11.443 4.9448 11.7476 5.19909 11.96L11.1991 16.96C11.2621 17.0047 11.329 17.0435 11.3991 17.076C11.4448 17.1066 11.4926 17.134 11.5421 17.158C11.6863 17.2187 11.8411 17.25 11.9976 17.25C12.154 17.25 12.3089 17.2187 12.4531 17.158C12.5014 17.1339 12.5481 17.1069 12.5931 17.077C12.6631 17.0445 12.7301 17.0056 12.7931 16.961L18.7931 11.961C18.9903 11.797 19.1323 11.5762 19.1997 11.3287C19.2672 11.0812 19.2569 10.8189 19.1702 10.5775C19.0835 10.3361 18.9246 10.1272 18.7151 9.97913C18.5056 9.83109 18.2556 9.7511 17.9991 9.75C17.7068 9.75055 17.4238 9.85312 17.1991 10.04L13.2491 13.331V2C13.2486 1.66864 13.1167 1.35101 12.8824 1.1167C12.6481 0.882395 12.3304 0.750529 11.9991 0.75Z" fill="#151515"/>
</g>
<defs>
<clipPath id="clip0_742_4843">
<rect width="24" height="24" fill="white"/>
</clipPath>
</defs>
</svg>
