<svg width="27" height="27" viewBox="0 0 27 27" fill="none" xmlns="http://www.w3.org/2000/svg">
<path d="M13.5 0C6.04543 0 0 6.04543 0 13.5C0 20.9546 6.0449 27 13.5 27C20.9546 27 27 20.9551 27 13.5C27 6.04543 20.9546 0 13.5 0ZM12.1501 4.94899C12.1501 4.74928 12.3256 4.58997 12.5363 4.58997H14.464C14.6745 4.58997 14.8499 4.74928 14.8499 4.94899V6.21H12.1501L12.1501 4.94899ZM18.1144 16.3833H18.1036L17.7823 21.3485C17.7417 21.9316 17.2368 22.4096 16.659 22.4096H10.3415C9.76106 22.4096 9.25617 21.9316 9.21825 21.3485L8.89694 16.3833H8.88617L8.37052 8.90963H18.6301L18.1144 16.3833ZM19.1701 8.36973H7.83021V6.74968H19.1701V8.36973Z" fill="#FF5858"/>
<path d="M13.4197 21.469C13.7149 21.469 13.9565 21.2275 13.9565 20.9322V10.4663C13.9565 10.171 13.715 9.92944 13.4197 9.92944C13.1243 9.92944 12.8828 10.171 12.8828 10.4663V20.9327C12.8828 21.2278 13.1243 21.4693 13.4197 21.4693V21.469Z" fill="#FF5858"/>
<path d="M15.5416 21.4697H15.5684C15.8528 21.4697 16.089 21.2469 16.1052 20.9598L16.6421 10.4934C16.6555 10.1981 16.43 9.94584 16.1322 9.92981C15.8423 9.91911 15.5847 10.1419 15.5687 10.4397L15.0318 20.9061C15.0182 21.2014 15.2437 21.4536 15.5416 21.4697Z" fill="#FF5858"/>
<path d="M11.2734 21.4698H11.3002C11.5982 21.4538 11.8234 21.2015 11.81 20.9063L11.2732 10.4399C11.2571 10.1419 11.0076 9.91663 10.7096 9.93001C10.4117 9.94607 10.1864 10.1983 10.1998 10.4936L10.7366 20.96C10.7527 21.247 10.9888 21.4698 11.2734 21.4698Z" fill="#FF5858"/>
</svg>
