<svg width="41" height="40" viewBox="0 0 41 40" fill="none" xmlns="http://www.w3.org/2000/svg">
<g id="Component icons">
<path id="Vector" d="M5.33325 17.361C5.33325 12.0317 5.33325 9.36705 5.96244 8.4706C6.59164 7.57415 9.09713 6.71651 14.1081 5.00124L15.0628 4.67445C17.6749 3.78032 18.9809 3.33325 20.3333 3.33325C21.6856 3.33325 22.9916 3.78032 25.6037 4.67445L26.5584 5.00124C31.5694 6.71651 34.0749 7.57415 34.7041 8.4706C35.3333 9.36705 35.3333 12.0317 35.3333 17.361C35.3333 18.166 35.3333 19.0389 35.3333 19.9855C35.3333 29.3823 28.2683 33.9424 23.8356 35.8787C22.6332 36.404 22.032 36.6666 20.3333 36.6666C18.6345 36.6666 18.0333 36.404 16.8309 35.8787C12.3982 33.9424 5.33325 29.3823 5.33325 19.9855C5.33325 19.0389 5.33325 18.166 5.33325 17.361Z" stroke="#F5F5F5" stroke-width="1.5"/>
</g>
</svg>
