<svg width="28" height="29" viewBox="0 0 28 29" fill="none" xmlns="http://www.w3.org/2000/svg">
<g id="dashicons:email-alt">
<path id="Vector" d="M25.8199 20.4585V8.54157C25.8199 7.44257 24.8811 6.55542 23.7181 6.55542H4.08783C2.92486 6.55542 1.98608 7.44257 1.98608 8.54157V20.4585C1.98608 21.5575 2.92486 22.4446 4.08783 22.4446H23.7181C24.8811 22.4446 25.8199 21.5575 25.8199 20.4585ZM23.9844 8.39592C24.4467 8.83287 24.1945 9.28307 23.9423 9.50816L18.2536 14.4338L23.7181 19.8097C23.8863 19.995 23.9984 20.2863 23.8022 20.485C23.6201 20.6968 23.1997 20.6836 23.0176 20.5512L16.8945 15.6123L13.896 18.1943L10.9115 15.6123L4.78841 20.5512C4.60626 20.6836 4.18591 20.6968 4.00376 20.485C3.8076 20.2863 3.91969 19.995 4.08783 19.8097L9.55237 14.4338L3.86364 9.50816C3.61143 9.28307 3.35922 8.83287 3.82161 8.39592C4.28399 7.95897 4.76039 8.17082 5.15272 8.48861L13.896 15.1621L22.6533 8.48861C23.0456 8.17082 23.522 7.95897 23.9844 8.39592Z" fill="#151515"/>
</g>
</svg>
