<svg width="28" height="28" viewBox="0 0 28 28" fill="none" xmlns="http://www.w3.org/2000/svg">
<g id="majesticons:map-marker">
<path id="Vector" fill-rule="evenodd" clip-rule="evenodd" d="M13.903 24.6281L14.7819 25.4694C14.6666 25.5806 14.5295 25.6688 14.3786 25.729C14.2277 25.7892 14.0658 25.8201 13.9024 25.8201C13.739 25.8201 13.5772 25.7892 13.4262 25.729C13.2753 25.6688 13.1383 25.5806 13.0229 25.4694L13.0155 25.4611L12.9944 25.4408L12.9174 25.3658C12.4798 24.933 12.0494 24.4936 11.6264 24.0478C10.5643 22.9305 9.54733 21.7746 8.57768 20.5824C7.4704 19.212 6.33829 17.6628 5.47804 16.1327C4.63641 14.6324 3.97229 13.0069 3.97229 11.5197C3.97229 6.11071 8.4312 1.98633 13.903 1.98633C19.3749 1.98633 23.8338 6.11071 23.8338 11.5197C23.8338 13.0069 23.1697 14.6324 22.328 16.1315C21.4678 17.664 20.3369 19.212 19.2284 20.5824C17.8721 22.2503 16.4234 23.847 14.8887 25.3658L14.8117 25.4408L14.7906 25.4611L14.7832 25.4682L13.903 24.6281ZM13.903 15.0947C14.8907 15.0947 15.8379 14.7181 16.5363 14.0476C17.2347 13.3772 17.6271 12.4679 17.6271 11.5197C17.6271 10.5716 17.2347 9.66224 16.5363 8.99179C15.8379 8.32135 14.8907 7.94469 13.903 7.94469C12.9154 7.94469 11.9681 8.32135 11.2698 8.99179C10.5714 9.66224 10.179 10.5716 10.179 11.5197C10.179 12.4679 10.5714 13.3772 11.2698 14.0476C11.9681 14.7181 12.9154 15.0947 13.903 15.0947Z" fill="#151515"/>
</g>
</svg>
