<svg width="26" height="25" viewBox="0 0 26 25" fill="none" xmlns="http://www.w3.org/2000/svg">
<g id="Group">
<path id="Vector" fill-rule="evenodd" clip-rule="evenodd" d="M18.519 24.4137C16.8 24.3504 11.9285 23.6773 6.82659 18.5776C1.72588 13.4768 1.05382 8.60744 0.989357 6.88766C0.89386 4.26681 2.90168 1.72115 5.22105 0.726998C5.50035 0.606418 5.80621 0.56051 6.10861 0.593778C6.41101 0.627046 6.69957 0.738346 6.94596 0.916758C8.85589 2.30834 10.1737 4.41361 11.3054 6.06894C11.5544 6.43262 11.6608 6.87518 11.6045 7.31229C11.5481 7.74939 11.3329 8.15049 10.9998 8.43916L8.67087 10.1685C8.55835 10.2497 8.47915 10.369 8.44798 10.5042C8.4168 10.6394 8.43577 10.7814 8.50136 10.9037C9.02898 11.862 9.96724 13.2894 11.0416 14.3635C12.1171 15.4376 13.6116 16.4378 14.637 17.0249C14.7656 17.0971 14.9169 17.1173 15.0599 17.0813C15.2029 17.0453 15.3267 16.956 15.4058 16.8316L16.9218 14.5246C17.2005 14.1545 17.6117 13.9065 18.0691 13.8326C18.5266 13.7588 18.995 13.8648 19.376 14.1284C21.0556 15.2908 23.0157 16.5857 24.4505 18.4225C24.6434 18.6706 24.7662 18.966 24.8058 19.2778C24.8455 19.5895 24.8007 19.9062 24.6761 20.1948C23.677 22.5256 21.1487 24.5103 18.519 24.4137Z" fill="#151515"/>
</g>
</svg>
