<svg width="41" height="40" viewBox="0 0 41 40" fill="none" xmlns="http://www.w3.org/2000/svg">
<g id="Component icons">
<g id="Group">
<path id="Vector" d="M6.35083 13.2C6.35083 8.3924 6.35083 5.9869 7.83125 4.4943C9.30999 3 11.6931 3 16.4561 3H26.5614C31.3243 3 33.7075 3 35.1862 4.4943C36.6666 5.9869 36.6666 8.3924 36.6666 13.2V26.8C36.6666 31.6076 36.6666 34.0131 35.1862 35.5057C33.7075 37 31.3243 37 26.5614 37H16.4561C11.6931 37 9.30999 37 7.83125 35.5057C6.35083 34.0131 6.35083 31.6076 6.35083 26.8V13.2Z" stroke="#F5F5F5" stroke-width="1.5"/>
<path id="Vector_2" d="M14.772 3.84985V36.9999M4.66675 19.9999H8.03517M4.66675 26.7999H8.03517M4.66675 13.1999H8.03517M20.6667 10.6499H29.0878M20.6667 16.5999H29.0878" stroke="#F5F5F5" stroke-width="1.5" stroke-linecap="round"/>
</g>
</g>
</svg>
