<svg width="21" height="26" viewBox="0 0 21 26" fill="black" xmlns="http://www.w3.org/2000/svg">
<g id="Group">
<path id="Vector" fill-rule="evenodd" clip-rule="evenodd" d="M5.7853 0.5H20.6708C20.8519 0.5 21 0.65455 21 0.843801V18.8469C21 19.0358 20.8519 19.1907 20.6708 19.1907H16.2132V6.21457C16.2132 6.02561 16.0651 5.87077 15.8837 5.87077H5.45582V0.843801C5.45582 0.65455 5.60393 0.5 5.7853 0.5ZM0.329199 6.51521H15.2147C15.3958 6.51521 15.5442 6.67006 15.5442 6.85901V24.8621C15.5442 25.0513 15.3958 25.2059 15.2147 25.2059H0.329199C0.148112 25.2059 0 25.0513 0 24.8621V6.85901C0 6.67006 0.148112 6.51521 0.329199 6.51521Z" />
</g>
</svg>
