<svg width="27" height="28" viewBox="0 0 27 28" fill="black" xmlns="http://www.w3.org/2000/svg">
<g id="noun-reporting-5104327 1" clip-path="url(#clip0_731_4301)">
<path id="Vector" fill-rule="evenodd" clip-rule="evenodd" d="M24.3633 15.2194L20.8773 18.6879C20.8419 18.7181 20.7967 18.7348 20.7498 18.7348C20.703 18.7348 20.6578 18.7181 20.6223 18.6879L18.9003 16.9848C18.5403 16.6495 18.0003 17.1747 18.3693 17.5099L20.1003 19.213C20.1843 19.2992 20.285 19.3677 20.3963 19.4145C20.5076 19.4613 20.6274 19.4854 20.7483 19.4854C20.8693 19.4854 20.9891 19.4613 21.1004 19.4145C21.2117 19.3677 21.3124 19.2992 21.3963 19.213L24.9003 15.7446C25.2633 15.4063 24.7323 14.8812 24.3693 15.2194H24.3633ZM4.93235 22.0436C4.83675 22.0352 4.74779 21.9917 4.68299 21.9217C4.61819 21.8517 4.58226 21.7602 4.58226 21.6653C4.58226 21.5704 4.61819 21.4789 4.68299 21.4089C4.74779 21.3388 4.83675 21.2954 4.93235 21.287H13.8603C13.9559 21.2954 14.0449 21.3388 14.1097 21.4089C14.1745 21.4789 14.2104 21.5704 14.2104 21.6653C14.2104 21.7602 14.1745 21.8517 14.1097 21.9217C14.0449 21.9917 13.9559 22.0352 13.8603 22.0436H4.93235ZM4.93235 14.1987C4.83369 14.1987 4.73907 14.16 4.6693 14.091C4.59954 14.022 4.56035 13.9284 4.56035 13.8308C4.56035 13.7333 4.59954 13.6397 4.6693 13.5707C4.73907 13.5017 4.83369 13.4629 4.93235 13.4629H13.8603C13.959 13.4629 14.0536 13.5017 14.1234 13.5707C14.1932 13.6397 14.2323 13.7333 14.2323 13.8308C14.2323 13.9284 14.1932 14.022 14.1234 14.091C14.0536 14.16 13.959 14.1987 13.8603 14.1987H4.93235ZM4.93235 18.1123C4.83369 18.1123 4.73907 18.0735 4.6693 18.0045C4.59954 17.9355 4.56035 17.8419 4.56035 17.7443C4.56035 17.6468 4.59954 17.5532 4.6693 17.4842C4.73907 17.4152 4.83369 17.3764 4.93235 17.3764H13.8603C13.959 17.3764 14.0536 17.4152 14.1234 17.4842C14.1932 17.5532 14.2323 17.6468 14.2323 17.7443C14.2323 17.8419 14.1932 17.9355 14.1234 18.0045C14.0536 18.0735 13.959 18.1123 13.8603 18.1123H4.93235ZM21.6423 12.1782C22.6636 12.1782 23.6619 12.4775 24.5112 13.0384C25.3605 13.5993 26.0226 14.3966 26.4139 15.3295C26.8053 16.2624 26.9083 17.2891 26.7099 18.2798C26.5116 19.2706 26.0208 20.181 25.2995 20.896C24.5782 21.611 23.6588 22.0985 22.6575 22.297C21.6562 22.4955 20.6179 22.396 19.6737 22.0111C18.7295 21.6262 17.9219 20.9732 17.3528 20.1346C16.7837 19.2959 16.4787 18.3093 16.4763 17.2993C16.4779 15.9447 17.0227 14.6461 17.9912 13.6883C18.9597 12.7304 20.2727 12.1916 21.6423 12.1901V12.1782ZM6.60035 0.669069V4.60039C6.60035 5.18585 6.36519 5.74733 5.94661 6.16131C5.52803 6.57529 4.96031 6.80786 4.36835 6.80786H0.360347C0.336409 6.80855 0.312873 6.81412 0.291211 6.82422C0.269549 6.83432 0.250228 6.84873 0.234458 6.86656C0.218688 6.88438 0.206808 6.90523 0.199562 6.92781C0.192316 6.95038 0.18986 6.97419 0.192347 6.99775V25.3518C0.191526 25.839 0.385203 26.3068 0.731264 26.6535C1.07732 27.0002 1.54779 27.1978 2.04035 27.2032H18.5613C19.0563 27.1994 19.5299 27.003 19.8796 26.6565C20.2294 26.31 20.4272 25.8414 20.4303 25.3518V23.1651C20.4289 23.1249 20.4134 23.0865 20.3867 23.0562C20.3599 23.026 20.3234 23.0057 20.2833 22.999C18.9827 22.6991 17.8229 21.9728 16.9927 20.9382C16.1624 19.9036 15.7105 18.6216 15.7105 17.3008C15.7105 15.9799 16.1624 14.698 16.9927 13.6634C17.8229 12.6288 18.9827 11.9025 20.2833 11.6026C20.3237 11.5952 20.3602 11.5744 20.3869 11.5436C20.4137 11.5129 20.429 11.474 20.4303 11.4335V2.33061C20.4264 1.84321 20.2276 1.37716 19.8775 1.03418C19.5273 0.6912 19.0542 0.499149 18.5613 0.499948H6.78335C6.75928 0.497471 6.73496 0.499985 6.71193 0.507329C6.6889 0.514673 6.66768 0.526687 6.64961 0.542602C6.63154 0.558517 6.61703 0.577984 6.607 0.59976C6.59696 0.621536 6.59163 0.645141 6.59135 0.669069H6.60035ZM1.02035 6.07204H4.35935C4.75717 6.07204 5.1387 5.91574 5.42001 5.63752C5.70131 5.35931 5.85935 4.98197 5.85935 4.58852V1.29808C5.86475 1.26162 5.85775 1.22441 5.83943 1.19231C5.82112 1.16022 5.79254 1.13505 5.75818 1.12078C5.72382 1.10651 5.68564 1.10394 5.64965 1.11348C5.61366 1.12302 5.58189 1.14412 5.55935 1.17346L0.900347 5.7783C0.870674 5.80059 0.849338 5.83201 0.839694 5.86761C0.830051 5.90321 0.832649 5.94097 0.847079 5.97495C0.861509 6.00893 0.886951 6.0372 0.919404 6.05531C0.951857 6.07342 0.989478 6.08035 1.02635 6.075L1.02035 6.07204Z" />
</g>
<defs>
<clipPath id="clip0_731_4301">
<rect width="27" height="27" transform="translate(0 0.5)"/>
</clipPath>
</defs>
</svg>
