<svg width="23" height="26" viewBox="0 0 23 26" fill="#000000" xmlns="http://www.w3.org/2000/svg">
<g id="noun-newspaper-2172898 1" clip-path="url(#clip0_731_4276)">
<g id="Group">
<path id="Vector" d="M6.5 0.863525C6.2958 0.863536 6.0936 0.906077 5.90495 0.988729C5.7163 1.07138 5.54489 1.19251 5.40051 1.34522C5.25613 1.49793 5.14161 1.67926 5.06349 1.87878C4.98537 2.07829 4.94517 2.2921 4.9452 2.50804V3.95045H1.78554C1.58132 3.95042 1.37909 3.99295 1.19041 4.07559C1.00173 4.15822 0.830286 4.27931 0.685879 4.43202C0.541472 4.58473 0.426927 4.76604 0.348787 4.96557C0.270647 5.16511 0.230442 5.379 0.230469 5.59497V21.7029C0.230461 22.0663 0.298134 22.4261 0.429623 22.7618C0.561112 23.0975 0.753842 23.4025 0.996808 23.6595C1.23978 23.9164 1.52822 24.1202 1.84567 24.2593C2.16312 24.3983 2.50337 24.4699 2.84697 24.4699H21.213C21.6254 24.4699 22.0208 24.2966 22.3124 23.9882C22.604 23.6799 22.7678 23.2617 22.7678 22.8257V2.50804C22.7679 2.2921 22.7277 2.07829 22.6495 1.87878C22.5714 1.67926 22.4569 1.49793 22.3125 1.34522C22.1681 1.19251 21.9967 1.07138 21.8081 0.988729C21.6194 0.906078 21.4172 0.863535 21.213 0.863525H6.5ZM7.51697 4.15843H13.3471C13.4158 4.15844 13.4817 4.18732 13.5303 4.23872C13.5789 4.29011 13.6062 4.35978 13.6062 4.43246V10.534C13.6062 10.6067 13.5789 10.6764 13.5303 10.7278C13.4817 10.7792 13.4158 10.808 13.3471 10.808H7.51697C7.44828 10.808 7.38244 10.7791 7.3339 10.7277C7.28536 10.6763 7.25809 10.6066 7.25809 10.534V4.43246C7.25809 4.35983 7.28536 4.29016 7.3339 4.23878C7.38244 4.18739 7.44828 4.15851 7.51697 4.15843ZM1.78554 4.4985H4.9452V21.7029C4.94154 22.2888 4.71888 22.8494 4.32581 23.2624C3.93274 23.6753 3.40117 23.9071 2.8471 23.9071C2.29304 23.9071 1.76147 23.6753 1.3684 23.2624C0.975323 22.8494 0.752663 22.2888 0.749008 21.7029V5.59497C0.74898 5.451 0.775769 5.30839 0.827847 5.17537C0.879924 5.04235 0.95627 4.9215 1.05252 4.81969C1.14878 4.71788 1.26305 4.63713 1.38882 4.58203C1.5146 4.52692 1.6494 4.4985 1.78554 4.4985ZM15.6092 4.50674H20.0478C20.1826 4.50753 20.3116 4.56468 20.4067 4.66575C20.5017 4.76682 20.555 4.90357 20.555 5.04611C20.555 5.18864 20.5017 5.3254 20.4067 5.42647C20.3116 5.52753 20.1826 5.58468 20.0478 5.58547H15.6092C15.4744 5.58468 15.3454 5.52753 15.2503 5.42647C15.1553 5.3254 15.1019 5.18864 15.1019 5.04611C15.1019 4.90357 15.1553 4.76682 15.2503 4.66575C15.3454 4.56468 15.4744 4.50753 15.6092 4.50674ZM15.6092 6.94447H20.0478C20.1826 6.94523 20.3117 7.0024 20.4067 7.10347C20.5018 7.20454 20.5552 7.34133 20.5552 7.48389C20.5552 7.62645 20.5018 7.76318 20.4067 7.86425C20.3117 7.96533 20.1826 8.0225 20.0478 8.02326H15.6092C15.4744 8.0225 15.3453 7.96533 15.2503 7.86425C15.1552 7.76318 15.1018 7.62645 15.1018 7.48389C15.1018 7.34133 15.1552 7.20454 15.2503 7.10347C15.3453 7.0024 15.4744 6.94523 15.6092 6.94447ZM15.6092 9.38225H20.0478C20.1831 9.38225 20.3128 9.4391 20.4085 9.54026C20.5041 9.64142 20.5579 9.77856 20.5579 9.92162C20.5579 10.0647 20.5041 10.2019 20.4085 10.303C20.3128 10.4042 20.1831 10.461 20.0478 10.461H15.6092C15.4739 10.461 15.3442 10.4042 15.2485 10.303C15.1529 10.2019 15.0991 10.0647 15.0991 9.92162C15.0991 9.77856 15.1529 9.64142 15.2485 9.54026C15.3442 9.4391 15.4739 9.38225 15.6092 9.38225ZM7.72554 11.82H20.0478C20.1831 11.82 20.3128 11.8768 20.4085 11.978C20.5041 12.0791 20.5579 12.2163 20.5579 12.3594C20.5579 12.5025 20.5041 12.6397 20.4085 12.7408C20.3128 12.842 20.1831 12.8988 20.0478 12.8988H7.72554C7.59026 12.8988 7.46052 12.842 7.36487 12.7408C7.26921 12.6397 7.21547 12.5025 7.21547 12.3594C7.21547 12.2163 7.26921 12.0791 7.36487 11.978C7.46052 11.8768 7.59026 11.82 7.72554 11.82ZM7.72554 14.2578H20.0478C20.1831 14.2578 20.3128 14.3146 20.4085 14.4158C20.5041 14.5169 20.5579 14.6541 20.5579 14.7972C20.5579 14.9403 20.5041 15.0775 20.4085 15.1786C20.3128 15.2798 20.1831 15.3366 20.0478 15.3366H7.72554C7.59026 15.3366 7.46052 15.2798 7.36487 15.1786C7.26921 15.0775 7.21547 14.9403 7.21547 14.7972C7.21547 14.6541 7.26921 14.5169 7.36487 14.4158C7.46052 14.3146 7.59026 14.2578 7.72554 14.2578ZM7.72554 16.6956H12.1642C12.2995 16.6956 12.4292 16.7524 12.5249 16.8536C12.6205 16.9547 12.6743 17.0919 12.6743 17.235C12.6743 17.378 12.6205 17.5152 12.5249 17.6164C12.4292 17.7176 12.2995 17.7743 12.1642 17.7743H7.72554C7.59026 17.7743 7.46052 17.7176 7.36487 17.6164C7.26921 17.5152 7.21547 17.378 7.21547 17.235C7.21547 17.0919 7.26921 16.9547 7.36487 16.8536C7.46052 16.7524 7.59026 16.6956 7.72554 16.6956ZM15.6092 16.6956H20.0478C20.1831 16.6956 20.3128 16.7524 20.4085 16.8536C20.5041 16.9547 20.5579 17.0919 20.5579 17.235C20.5579 17.378 20.5041 17.5152 20.4085 17.6164C20.3128 17.7176 20.1831 17.7743 20.0478 17.7743H15.6092C15.4739 17.7743 15.3442 17.7176 15.2485 17.6164C15.1529 17.5152 15.0991 17.378 15.0991 17.235C15.0991 17.0919 15.1529 16.9547 15.2485 16.8536C15.3442 16.7524 15.4739 16.6956 15.6092 16.6956ZM7.72554 19.1333H12.1642C12.2995 19.1333 12.4292 19.1902 12.5249 19.2913C12.6205 19.3925 12.6743 19.5297 12.6743 19.6728C12.6743 19.8158 12.6205 19.953 12.5249 20.0542C12.4292 20.1553 12.2995 20.2121 12.1642 20.2121H7.72554C7.59026 20.2121 7.46052 20.1553 7.36487 20.0542C7.26921 19.953 7.21547 19.8158 7.21547 19.6728C7.21547 19.5297 7.26921 19.3925 7.36487 19.2913C7.46052 19.1902 7.59026 19.1333 7.72554 19.1333ZM15.6092 19.1333H20.0478C20.1831 19.1333 20.3128 19.1902 20.4085 19.2913C20.5041 19.3925 20.5579 19.5297 20.5579 19.6728C20.5579 19.8158 20.5041 19.953 20.4085 20.0542C20.3128 20.1553 20.1831 20.2121 20.0478 20.2121H15.6092C15.4739 20.2121 15.3442 20.1553 15.2485 20.0542C15.1529 19.953 15.0991 19.8158 15.0991 19.6728C15.0991 19.5297 15.1529 19.3925 15.2485 19.2913C15.3442 19.1902 15.4739 19.1333 15.6092 19.1333ZM7.72554 21.5711H12.1642C12.2995 21.5711 12.4292 21.628 12.5249 21.7291C12.6205 21.8303 12.6743 21.9675 12.6743 22.1106C12.6743 22.2536 12.6205 22.3908 12.5249 22.4919C12.4292 22.5931 12.2995 22.6499 12.1642 22.6499H7.72554C7.59026 22.6499 7.46052 22.5931 7.36487 22.4919C7.26921 22.3908 7.21547 22.2536 7.21547 22.1106C7.21547 21.9675 7.26921 21.8303 7.36487 21.7291C7.46052 21.628 7.59026 21.5711 7.72554 21.5711ZM15.6092 21.5711H20.0478C20.1831 21.5711 20.3128 21.628 20.4085 21.7291C20.5041 21.8303 20.5579 21.9675 20.5579 22.1106C20.5579 22.2536 20.5041 22.3908 20.4085 22.4919C20.3128 22.5931 20.1831 22.6499 20.0478 22.6499H15.6092C15.4739 22.6499 15.3442 22.5931 15.2485 22.4919C15.1529 22.3908 15.0991 22.2536 15.0991 22.1106C15.0991 21.9675 15.1529 21.8303 15.2485 21.7291C15.3442 21.628 15.4739 21.5711 15.6092 21.5711Z"/>
</g>
</g>
<defs>
<clipPath id="clip0_731_4276">
<rect width="23" height="25" fill="white" transform="translate(0 0.5)"/>
</clipPath>
</defs>
</svg>
