<svg width="23" height="26" viewBox="0 0 23 26" fill="black" xmlns="http://www.w3.org/2000/svg">
<g id="noun-contacts-1722449 1" clip-path="url(#clip0_890_4512)">
<g id="Group">
<path id="Vector" d="M3.46629 0.777883C2.72616 0.777883 2.12559 1.38735 2.12559 2.12752V4.18751H1.55734C0.77523 4.18751 0.136719 4.82601 0.136719 5.60817C0.136719 6.39031 0.77523 7.02885 1.55734 7.02885H2.12559C2.12554 7.03168 2.12554 7.03482 2.12559 7.03765V11.575H1.55734C0.77523 11.575 0.136719 12.2134 0.136719 12.9956C0.136719 13.7778 0.77523 14.4163 1.55734 14.4163H2.12559V18.9624H1.55734C0.77523 18.9624 0.136719 19.6009 0.136719 20.3831C0.136719 21.1652 0.77523 21.8038 1.55734 21.8038H2.12559V23.8727C2.12107 24.6149 2.72616 25.2223 3.46629 25.2223H21.2329C21.9738 25.2223 22.5825 24.6128 22.5825 23.8727V2.12747C22.5825 1.3873 21.973 0.777832 21.2329 0.777832L3.46629 0.777883ZM1.55734 4.75578H3.26208C3.73921 4.75578 4.11445 5.13102 4.11445 5.60817C4.11445 6.08529 3.73921 6.46058 3.26208 6.46058H1.55734C1.08021 6.46058 0.704967 6.08529 0.704967 5.60817C0.704967 5.13102 1.08021 4.75578 1.55734 4.75578ZM12.3629 5.32404C14.0856 5.32404 15.4883 6.72674 15.4883 8.44953C15.4883 10.1723 14.0856 11.575 12.3629 11.575C10.6402 11.575 9.23756 10.1723 9.23756 8.44953C9.23756 6.72674 10.6402 5.32404 12.3629 5.32404ZM12.3629 5.89231C10.9473 5.89231 9.80581 7.03386 9.80581 8.44953C9.80581 9.8652 10.9473 11.0067 12.3629 11.0067C13.7785 11.0067 14.92 9.8652 14.92 8.44953C14.92 7.03386 13.7785 5.89231 12.3629 5.89231ZM1.55734 12.1433H3.26208C3.73921 12.1433 4.11445 12.5185 4.11445 12.9957C4.11445 13.4728 3.73921 13.8481 3.26208 13.8481H1.55734C1.08021 13.8481 0.704967 13.4728 0.704967 12.9957C0.704967 12.5185 1.08021 12.1433 1.55734 12.1433ZM9.94787 12.7116H14.778C16.5811 12.7116 18.0454 14.1467 18.0454 15.9258V19.8149C18.0454 19.8903 18.0155 19.9626 17.9622 20.0158C17.9089 20.0691 17.8366 20.099 17.7613 20.0991H6.96457C6.88922 20.099 6.81695 20.0691 6.76367 20.0158C6.71039 19.9626 6.68045 19.8903 6.68045 19.8149V15.9258C6.68045 14.1467 8.14473 12.7116 9.94787 12.7116ZM9.94787 13.2798C8.44392 13.2798 7.24869 14.4569 7.24869 15.9258V19.5308H17.4772V15.9258C17.4772 14.4569 16.2819 13.2798 14.778 13.2798H9.94787ZM1.55734 19.5308H3.26208C3.73921 19.5308 4.11445 19.906 4.11445 20.3832C4.11445 20.8603 3.73921 21.2356 3.26208 21.2356H1.55734C1.08021 21.2356 0.704967 20.8603 0.704967 20.3832C0.704967 19.906 1.08021 19.5308 1.55734 19.5308Z" />
</g>
</g>
<defs>
<clipPath id="clip0_890_4512">
<rect width="23" height="25" fill="white" transform="translate(0 0.5)"/>
</clipPath>
</defs>
</svg>
