<svg width="40" height="40" viewBox="0 0 40 40" fill="none" xmlns="http://www.w3.org/2000/svg">
<path d="M4 18.4C4 12.5546 4 9.63188 6.0828 7.81594C8.16559 6 11.5178 6 18.2222 6H21.7778C28.4822 6 31.8344 6 33.9172 7.81594C36 9.63188 36 12.5546 36 18.4V24.6C36 30.4454 36 33.3681 33.9172 35.1841C31.8344 37 28.4822 37 21.7778 37H18.2222C11.5178 37 8.16559 37 6.0828 35.1841C4 33.3681 4 30.4454 4 24.6V18.4Z" stroke="#F5F5F5" stroke-width="1.5"/>
<path d="M30 6V4" stroke="#F5F5F5" stroke-width="1.5" stroke-linecap="round"/>
<path d="M12 6V4" stroke="#F5F5F5" stroke-width="1.5" stroke-linecap="round"/>
<path d="M4 15H36" stroke="#F5F5F5" stroke-width="1.5" stroke-linecap="round"/>
<circle cx="12.5" cy="23.25" r="1.25" fill="#F5F5F5"/>
<circle cx="20" cy="23.25" r="1.25" fill="#F5F5F5"/>
<circle cx="27.5" cy="23.25" r="1.25" fill="#F5F5F5"/>
<circle cx="12.5" cy="28.75" r="1.25" fill="#F5F5F5"/>
<circle cx="20" cy="28.75" r="1.25" fill="#F5F5F5"/>
<circle cx="27.5" cy="28.75" r="1.25" fill="#F5F5F5"/>
</svg>
