<svg width="41" height="40" viewBox="0 0 41 40" fill="none" xmlns="http://www.w3.org/2000/svg">
<g id="Component icons">
<path id="Vector" d="M33.4118 25.8929H7.92157M33.4118 25.8929V13.3334C33.4118 10.1907 33.4118 8.61937 32.4355 7.64306C31.4591 6.66675 29.8878 6.66675 26.7451 6.66675H14.5882C11.4455 6.66675 9.87419 6.66675 8.89788 7.64306C7.92157 8.61937 7.92157 10.1907 7.92157 13.3334V25.8929M33.4118 25.8929L36.3185 28.8931C36.3927 28.9697 36.4299 29.0081 36.4646 29.0461C36.9996 29.6337 37.3072 30.3931 37.3317 31.1875C37.3333 31.239 37.3333 31.2923 37.3333 31.3989C37.3333 31.6476 37.3333 31.772 37.3267 31.8769C37.2208 33.5523 35.8856 34.8876 34.2102 34.9934C34.1052 35.0001 33.9809 35.0001 33.7322 35.0001H7.60114C7.35247 35.0001 7.22813 35.0001 7.12314 34.9934C5.44775 34.8876 4.11249 33.5523 4.00663 31.8769C4 31.772 4 31.6476 4 31.3989C4 31.2923 4 31.239 4.00159 31.1875C4.02616 30.3931 4.3337 29.6337 4.86878 29.0461C4.90346 29.0081 4.94064 28.9697 5.0148 28.8931L7.92157 25.8929" stroke="#F5F5F5" stroke-width="1.5" stroke-linecap="round"/>
<path id="Vector_2" d="M16.5 30.8333H24.8333" stroke="#F5F5F5" stroke-width="1.5" stroke-linecap="round"/>
<path id="Vector_3" d="M21.9167 11.25C21.9167 11.9404 21.3571 12.5 20.6667 12.5C19.9764 12.5 19.4167 11.9404 19.4167 11.25C19.4167 10.5596 19.9764 10 20.6667 10C21.3571 10 21.9167 10.5596 21.9167 11.25Z" fill="#F5F5F5"/>
</g>
</svg>
