<svg width="40" height="40" viewBox="0 0 40 40" fill="none" xmlns="http://www.w3.org/2000/svg">
<g id="Component icons">
<path id="Vector" d="M5 16.6666C5 10.3812 5 7.23849 6.95262 5.28587C8.90524 3.33325 12.0479 3.33325 18.3333 3.33325H21.6667C27.9521 3.33325 31.0948 3.33325 33.0474 5.28587C35 7.23849 35 10.3812 35 16.6666V23.3333C35 29.6186 35 32.7613 33.0474 34.714C31.0948 36.6666 27.9521 36.6666 21.6667 36.6666H18.3333C12.0479 36.6666 8.90524 36.6666 6.95262 34.714C5 32.7613 5 29.6186 5 23.3333V16.6666Z" stroke="#F5F5F5" stroke-width="1.5"/>
<path id="Vector_2" d="M13.3333 20H26.6666" stroke="#F5F5F5" stroke-width="1.5" stroke-linecap="round"/>
<path id="Vector_3" d="M13.3333 13.3333H26.6666" stroke="#F5F5F5" stroke-width="1.5" stroke-linecap="round"/>
<path id="Vector_4" d="M13.3333 26.6667H21.6666" stroke="#F5F5F5" stroke-width="1.5" stroke-linecap="round"/>
</g>
</svg>
