<svg width="14" height="14" viewBox="0 0 14 14" fill="none" xmlns="http://www.w3.org/2000/svg">
<path d="M13.7083 6.55833L7.87494 0.724997C7.71417 0.568693 7.48223 0.510032 7.26648 0.57111C7.05073 0.632189 6.88396 0.803728 6.82898 1.02111C6.774 1.23849 6.83917 1.46869 6.99994 1.625L11.7583 6.375H0.733276C0.388098 6.375 0.108276 6.65482 0.108276 7C0.108276 7.34517 0.388098 7.625 0.733276 7.625H11.7499L6.99994 12.375C6.88082 12.4911 6.81363 12.6503 6.81363 12.8167C6.81363 12.983 6.88082 13.1423 6.99994 13.2583C7.11481 13.3789 7.27515 13.4454 7.44161 13.4417C7.6075 13.4424 7.76671 13.3764 7.88328 13.2583L13.7166 7.425C13.9603 7.18098 13.9603 6.78568 13.7166 6.54166L13.7083 6.55833Z" fill="#151515"/>
</svg>
