<svg width="244" height="100" viewBox="0 0 244 100" fill="none" xmlns="http://www.w3.org/2000/svg">
<g id="404">
<path d="M72.5095 77.3422H59.3982V98.6711H44.0354V77.3422H0V65.5149L44.2341 1.26246H59.3982V64.3854H72.5095V77.3422ZM44.0354 64.3854V40.2658C44.0354 38.2724 44.0575 36.2569 44.1017 34.2193C44.1899 32.1373 44.2782 30.144 44.3665 28.2392C44.4548 26.3344 44.5431 24.5847 44.6314 22.99C44.7197 21.3511 44.7859 20 44.8301 18.9369H44.3003C43.4615 20.7087 42.5345 22.5249 41.5191 24.3854C40.5038 26.2015 39.4222 27.9734 38.2744 29.701L14.4357 64.3854H44.0354Z" fill="#151515"/>
<path d="M154.745 50.0332C154.745 57.8738 154.127 64.8948 152.891 71.0963C151.699 77.2536 149.801 82.4806 147.196 86.7774C144.592 91.0742 141.192 94.3522 136.999 96.6113C132.805 98.8704 127.728 100 121.768 100C114.308 100 108.149 98.0288 103.293 94.0864C98.4372 90.0997 94.8393 84.3854 92.4996 76.9435C90.1598 69.4574 88.99 60.4873 88.99 50.0332C88.99 39.5792 90.0495 30.6312 92.1685 23.1894C94.3316 15.7032 97.8191 9.96678 102.631 5.98007C107.443 1.99336 113.822 0 121.768 0C129.273 0 135.453 1.99336 140.309 5.98007C145.21 9.92248 148.83 15.6368 151.169 23.1229C153.553 30.5648 154.745 39.5349 154.745 50.0332ZM104.684 50.0332C104.684 58.2281 105.214 65.072 106.273 70.5648C107.377 76.0576 109.187 80.1772 111.703 82.9236C114.219 85.6257 117.574 86.9767 121.768 86.9767C125.962 86.9767 129.317 85.6257 131.833 82.9236C134.35 80.2215 136.16 76.124 137.263 70.6312C138.411 65.1384 138.985 58.2724 138.985 50.0332C138.985 41.8826 138.433 35.0609 137.33 29.5681C136.226 24.0753 134.416 19.9557 131.9 17.2093C129.383 14.4186 126.006 13.0233 121.768 13.0233C117.53 13.0233 114.153 14.4186 111.637 17.2093C109.165 19.9557 107.377 24.0753 106.273 29.5681C105.214 35.0609 104.684 41.8826 104.684 50.0332Z" fill="#151515"/>
<path d="M244 77.3422H230.889V98.6711H215.526V77.3422H171.491V65.5149L215.725 1.26246H230.889V64.3854H244V77.3422ZM215.526 64.3854V40.2658C215.526 38.2724 215.548 36.2569 215.592 34.2193C215.68 32.1373 215.769 30.144 215.857 28.2392C215.945 26.3344 216.034 24.5847 216.122 22.99C216.21 21.3511 216.276 20 216.321 18.9369H215.791C214.952 20.7087 214.025 22.5249 213.01 24.3854C211.994 26.2015 210.913 27.9734 209.765 29.701L185.926 64.3854H215.526Z" fill="#151515"/>
</g>
</svg>
