<svg xmlns="http://www.w3.org/2000/svg" width="158" height="40" viewBox="0 0 158 40" fill="none">
  <path d="M116.3 0.5001C135.872 5.439 151.541 20.4802 157.68 38.5521C157.882 39.1133 157.57 39.7307 157.021 39.9365C156.507 40.1236 155.958 39.8804 155.719 39.4127C147.473 23.0806 131.071 12.1552 114.541 10.565C111.774 10.3031 109.758 7.79621 110.014 4.99001C110.271 2.16511 112.726 0.107234 115.475 0.369145C115.714 0.387853 115.952 0.425272 116.19 0.481396L116.3 0.5001Z" fill="#112F5B"/>
  <path d="M102.867 21.5281L134.791 14.2881" stroke="#112F5B" stroke-width="1.009" stroke-miterlimit="10"/>
  <path d="M41.6959 0.5001C22.1236 5.42029 6.45481 20.4802 0.31557 38.5521C0.113983 39.1133 0.425527 39.7307 0.97531 39.9365C1.48844 40.1236 2.03822 39.8804 2.27646 39.4127C10.5232 23.0806 26.925 12.1552 43.4552 10.565C46.2224 10.3031 48.2383 7.79621 47.9817 4.99001C47.7251 2.16511 45.2694 0.107234 42.5205 0.369145C42.2823 0.387853 42.0441 0.425272 41.8058 0.481396L41.6959 0.5001Z" fill="#112F5B"/>
  <path d="M55.1088 21.5281L23.2031 14.2881" stroke="#112F5B" stroke-width="1.009" stroke-miterlimit="10"/>
</svg>