<svg xmlns="http://www.w3.org/2000/svg" width="158" height="106" viewBox="0 0 158 106" fill="none">
<path d="M39.8789 26.0789V34.8342C39.8789 34.8342 125.828 67.6667 157.532 105.999V16.0889C157.532 16.0889 137.08 24.7881 39.8789 26.0789Z" fill="#112F5B"/>
<path d="M151.065 21.3828C150.222 21.5886 98.2856 29.0531 63.2461 28.6228C63.2461 28.6228 148.151 27.3506 151.688 50.9788L151.065 21.3828Z" fill="white"/>
<path d="M43.0797 15.4844L55.5781 15.4844V7.7767L43.0797 7.7767V15.4844Z" fill="#112F5B"/>
<path d="M37.4513 21.5547L61.1836 21.5547V12.9677L37.4513 12.9677V21.5547Z" fill="#112F5B"/>
<path d="M49.1671 38.7067H49.4603C56.974 38.7067 63.0766 32.4769 63.0766 24.8066H35.5508C35.5508 32.4769 41.6534 38.7067 49.1671 38.7067Z" fill="#112F5B"/>
<path d="M32.4492 29.3896L66.1875 29.3896V16.238L32.4492 16.238V29.3896Z" fill="#112F5B"/>
<path d="M63.0396 17.8848H34.1211V27.0517L36.1003 19.793L63.0396 17.8848Z" fill="white"/>
<path d="M47.3906 10.57H51.2391V1.96433C51.2391 0.879273 50.3778 0 49.3149 0C48.2519 0 47.3906 0.879273 47.3906 1.96433V10.57Z" fill="#112F5B"/>
<path d="M0 4.2275H50.1035L44.9905 0.298828L6.28585 2.26316L0 4.2275Z" fill="#112F5B"/>
<path d="M98.6504 4.2275H48.5469L53.6599 0.298828L92.3645 2.26316L98.6504 4.2275Z" fill="#112F5B"/>
<path d="M8.87109 2.99246L44.4603 1.29004L46.183 2.50606L8.87109 2.99246Z" fill="white"/>
<path d="M89.7807 2.99246L52.4688 2.50606L54.1914 1.29004L89.7807 2.99246Z" fill="white"/>
</svg>