<svg xmlns="http://www.w3.org/2000/svg" width="146" height="106" viewBox="0 0 146 106" fill="none">
<path d="M89.046 50.5117H56.957V105.569H89.046V50.5117Z" fill="#112F5B"/>
<path d="M81.8079 90.9027C81.8079 95.8603 77.8678 99.8825 73.0114 99.8825C68.1549 99.8825 64.2148 95.8603 64.2148 90.9027C64.2148 85.9451 68.1549 81.9229 73.0114 81.9229C77.8678 81.9229 81.8079 85.9264 81.8079 90.9027Z" fill="white"/>
<path d="M78.5641 90.903C78.5641 94.046 76.0718 96.5903 72.993 96.5903C69.9142 96.5903 67.4219 94.046 67.4219 90.903C67.4219 87.7601 69.9142 85.2158 72.993 85.2158C76.0718 85.2158 78.5641 87.7601 78.5641 90.903Z" fill="#112F5B"/>
<path d="M78.1797 86.4318C78.1797 87.891 77.0251 89.0696 75.5957 89.0696C74.1663 89.0696 73.0117 87.891 73.0117 86.4318C73.0117 84.9725 74.1663 83.7939 75.5957 83.7939C77.0251 83.7939 78.1797 84.9725 78.1797 86.4318Z" fill="white"/>
<path d="M120.75 16.5005C131.471 16.5005 140.158 25.3681 140.158 36.3123V54.5899C140.158 65.5341 131.471 74.4017 120.75 74.4017H25.2531C14.5323 74.4017 5.84578 65.5341 5.84578 54.5899V36.3123C5.84578 25.3681 14.5323 16.5005 25.2531 16.5005H120.75ZM120.75 10.832H25.2531C11.4902 10.832 0.292969 22.2626 0.292969 36.3123V54.5899C0.292969 68.6396 11.4902 80.0702 25.2531 80.0702H120.75C134.513 80.0702 145.71 68.6396 145.71 54.5899V36.3123C145.729 22.2626 134.532 10.832 120.75 10.832Z" fill="white"/>
<path d="M120.752 74.4207H25.255C14.5342 74.4207 5.84766 65.5531 5.84766 54.6089V36.3313C5.84766 25.3871 14.5342 16.5195 25.255 16.5195H120.752C131.473 16.5195 140.16 25.3871 140.16 36.3313V54.6089C140.178 65.5344 131.491 74.4207 120.752 74.4207Z" fill="#112F5B"/>
<path d="M109.536 36.2002H36.4883C36.4883 16.5194 52.1204 0.561523 71.3995 0.561523H74.6249C93.9039 0.561523 109.536 16.5194 109.536 36.2002Z" fill="#112F5B"/>
<path d="M69.9492 4.56535C69.9492 4.56535 87.8904 -1.40249 101.104 17.9041C101.104 17.9041 86.7726 3.01259 69.9492 4.56535Z" fill="white"/>
<path d="M21.9727 19.9053H126.413C126.413 19.9053 137.262 24.3016 137.115 33.824C137.115 33.824 131.691 24.601 125.57 23.3101L21.9727 19.9053Z" fill="white"/>
<path d="M91.4634 40.6345C91.4634 43.5717 83.1983 45.9663 73.009 45.9663C62.8197 45.9663 54.5547 43.5904 54.5547 40.6345C54.5547 37.6974 62.8197 35.3027 73.009 35.3027C83.1983 35.3027 91.4634 37.6786 91.4634 40.6345Z" fill="white"/>
</svg>