<svg width="250" height="84" viewBox="0 0 250 84" fill="none" xmlns="http://www.w3.org/2000/svg">
<g id="404 drone 2 1" clip-path="url(#clip0_167_2383)">
<g id="Group">
<g id="Group_2">
<g id="Group_3">
<g id="Group_4">
<g id="Group_5">
<g id="Group_6">
<path id="Vector" d="M222.152 18.2557V24.3845C222.152 24.3845 162.132 47.3672 139.992 74.2V11.2627C140.005 11.2627 154.274 17.3521 222.152 18.2557Z" fill="#112F5B"/>
<path id="Vector_2" d="M144.509 14.9688C145.098 15.1128 181.366 20.3379 205.835 20.0367C205.835 20.0367 146.544 19.1462 144.074 35.6859L144.509 14.9688Z" fill="white"/>
</g>
<g id="Group_7">
<g id="Group_8">
<path id="Vector_3" d="M219.927 5.44824H211.199V10.8436H219.927V5.44824Z" fill="#112F5B"/>
<path id="Vector_4" d="M223.842 9.0752H207.27V15.0861H223.842V9.0752Z" fill="#112F5B"/>
<path id="Vector_5" d="M215.666 27.0943H215.462C210.215 27.0943 205.953 22.7334 205.953 17.3643H225.175C225.175 22.7334 220.913 27.0943 215.666 27.0943Z" fill="#112F5B"/>
<g id="Group_9">
<path id="Vector_6" d="M227.338 11.3672H203.777V20.5734H227.338V11.3672Z" fill="#112F5B"/>
<path id="Vector_7" d="M205.992 12.5195H226.174V18.9364L224.792 13.8553L205.992 12.5195Z" fill="white"/>
</g>
<path id="Vector_8" d="M216.906 7.399H214.219V1.37503C214.219 0.615491 214.82 0 215.562 0C216.305 0 216.906 0.615491 216.906 1.37503V7.399Z" fill="#112F5B"/>
</g>
<g id="Group_10">
<path id="Vector_9" d="M250.003 2.96003H215.027L218.585 0.209961L245.613 1.585L250.003 2.96003Z" fill="#112F5B"/>
<g id="Group_11">
<path id="Vector_10" d="M181.125 2.96003H216.101L212.543 0.209961L185.515 1.585L181.125 2.96003Z" fill="#112F5B"/>
<g id="Group_12">
<path id="Vector_11" d="M243.819 2.09599L218.953 0.904297L217.75 1.75551L243.819 2.09599Z" fill="white"/>
<path id="Vector_12" d="M187.305 2.09599L213.373 1.75551L212.17 0.904297L187.305 2.09599Z" fill="white"/>
</g>
</g>
</g>
</g>
</g>
<g id="Group_13">
<g id="Group_14">
<path id="Vector_13" d="M27.8477 18.2557V24.3845C27.8477 24.3845 87.8681 47.3672 110.008 74.2V11.2627C110.008 11.2627 95.7258 17.3521 27.8477 18.2557Z" fill="#112F5B"/>
<path id="Vector_14" d="M105.49 14.9688C104.901 15.1128 68.633 20.3379 44.1641 20.0367C44.1641 20.0367 103.455 19.1462 105.925 35.6859L105.49 14.9688Z" fill="white"/>
</g>
<g id="Group_15">
<g id="Group_16">
<path id="Vector_15" d="M30.0846 10.8389L38.8125 10.8389V5.44349L30.0846 5.44349V10.8389Z" fill="#112F5B"/>
<path id="Vector_16" d="M26.1537 15.0879L42.7266 15.0879V9.07702L26.1537 9.07702V15.0879Z" fill="#112F5B"/>
<path id="Vector_17" d="M34.3328 27.0943H34.5376C39.7845 27.0943 44.0461 22.7334 44.0461 17.3643H24.8242C24.8242 22.7334 29.0858 27.0943 34.3328 27.0943Z" fill="#112F5B"/>
<g id="Group_17">
<path id="Vector_18" d="M22.6585 20.5728L46.2188 20.5728V11.3666L22.6585 11.3666V20.5728Z" fill="#112F5B"/>
<path id="Vector_19" d="M44.0226 12.519H23.8281V18.9359L25.2103 13.8548L44.0226 12.519Z" fill="white"/>
</g>
<path id="Vector_20" d="M33.0938 7.399H35.7812V1.37503C35.7812 0.615491 35.1797 0 34.4375 0C33.6952 0 33.0938 0.615491 33.0938 1.37503V7.399Z" fill="#112F5B"/>
</g>
<g id="Group_18">
<path id="Vector_21" d="M0 2.96003H34.9885L31.418 0.209961L4.38956 1.585L0 2.96003Z" fill="#112F5B"/>
<g id="Group_19">
<path id="Vector_22" d="M68.8908 2.96003H33.9023L37.4729 0.209961L64.5013 1.585L68.8908 2.96003Z" fill="#112F5B"/>
<g id="Group_20">
<path id="Vector_23" d="M6.19531 2.09599L31.0481 0.904297L32.2511 1.75551L6.19531 2.09599Z" fill="white"/>
<path id="Vector_24" d="M62.6964 2.09599L36.6406 1.75551L37.8436 0.904297L62.6964 2.09599Z" fill="white"/>
</g>
</g>
</g>
</g>
</g>
</g>
<g id="Group_21">
<path id="Vector_25" d="M136.205 35.3574H113.797V73.8977H136.205V35.3574Z" fill="#112F5B"/>
<g id="Group_22">
<path id="Vector_26" d="M131.149 63.6316C131.149 67.1019 128.397 69.9174 125.006 69.9174C121.615 69.9174 118.863 67.1019 118.863 63.6316C118.863 60.1612 121.615 57.3457 125.006 57.3457C128.397 57.3457 131.149 60.1482 131.149 63.6316Z" fill="white"/>
<g id="Group_23">
<path id="Vector_27" d="M128.882 63.6314C128.882 65.8315 127.142 67.6125 124.992 67.6125C122.842 67.6125 121.102 65.8315 121.102 63.6314C121.102 61.4314 122.842 59.6504 124.992 59.6504C127.142 59.6504 128.882 61.4314 128.882 63.6314Z" fill="#112F5B"/>
<path id="Vector_28" d="M128.613 60.5017C128.613 61.5232 127.807 62.3482 126.808 62.3482C125.81 62.3482 125.004 61.5232 125.004 60.5017C125.004 59.4803 125.81 58.6553 126.808 58.6553C127.807 58.6553 128.613 59.4803 128.613 60.5017Z" fill="white"/>
</g>
</g>
<g id="Group_24">
<path id="Vector_29" d="M158.345 11.55C165.831 11.55 171.897 17.7573 171.897 25.4182V38.2126C171.897 45.8735 165.831 52.0808 158.345 52.0808H91.6568C84.1703 52.0808 78.1042 45.8735 78.1042 38.2126V25.4182C78.1042 17.7573 84.1703 11.55 91.6568 11.55H158.345ZM158.345 7.58203H91.6568C82.0459 7.58203 74.2266 15.5834 74.2266 25.4182V38.2126C74.2266 48.0473 82.0459 56.0487 91.6568 56.0487H158.345C167.956 56.0487 175.775 48.0473 175.775 38.2126V25.4182C175.788 15.5834 167.969 7.58203 158.345 7.58203Z" fill="white"/>
</g>
<path id="Vector_30" d="M158.346 52.0943H91.6581C84.1715 52.0943 78.1055 45.887 78.1055 38.2261V25.4317C78.1055 17.7708 84.1715 11.5635 91.6581 11.5635H158.346C165.833 11.5635 171.899 17.7708 171.899 25.4317V38.2261C171.911 45.8739 165.845 52.0943 158.346 52.0943Z" fill="#112F5B"/>
<path id="Vector_31" d="M150.511 25.3396H99.5C99.5 11.5631 110.416 0.392578 123.879 0.392578H126.132C139.595 0.392578 150.511 11.5631 150.511 25.3396Z" fill="#112F5B"/>
<path id="Vector_32" d="M122.871 3.19467C122.871 3.19467 135.4 -0.982815 144.627 12.5318C144.627 12.5318 134.619 2.10774 122.871 3.19467Z" fill="white"/>
<path id="Vector_33" d="M89.3672 13.9336H162.3C162.3 13.9336 169.877 17.0111 169.774 23.6767C169.774 23.6767 165.986 17.2206 161.712 16.317L89.3672 13.9336Z" fill="white"/>
<path id="Vector_34" d="M137.895 28.4432C137.895 30.4992 132.124 32.1754 125.008 32.1754C117.893 32.1754 112.121 30.5123 112.121 28.4432C112.121 26.3872 117.893 24.7109 125.008 24.7109C132.124 24.7109 137.895 26.3741 137.895 28.4432Z" fill="white"/>
</g>
<g id="Group_25">
<g id="Group_26">
<path id="Vector_35" d="M151.049 56.3506C164.717 59.8078 175.659 70.3366 179.946 82.987C180.087 83.3798 179.87 83.812 179.486 83.956C179.127 84.087 178.743 83.9167 178.577 83.5893C172.818 72.1569 161.364 64.5091 149.821 63.396C147.888 63.2126 146.481 61.4578 146.66 59.4935C146.839 57.5161 148.554 56.0756 150.474 56.2589C150.64 56.272 150.806 56.2982 150.973 56.3375L151.049 56.3506Z" fill="#112F5B"/>
<path id="Vector_36" d="M141.668 71.0699L163.961 66.002" stroke="#112F5B" stroke-width="1.009" stroke-miterlimit="10"/>
</g>
<g id="Group_27">
<path id="Vector_37" d="M98.9516 56.3506C85.2839 59.7947 74.342 70.3366 70.0548 82.987C69.914 83.3798 70.1316 83.812 70.5155 83.956C70.8738 84.087 71.2577 83.9167 71.4241 83.5893C77.183 72.1569 88.6368 64.5091 100.18 63.396C102.113 63.2126 103.52 61.4578 103.341 59.4935C103.162 57.5161 101.447 56.0756 99.5275 56.2589C99.3612 56.272 99.1948 56.2982 99.0284 56.3375L98.9516 56.3506Z" fill="#112F5B"/>
<path id="Vector_38" d="M108.32 71.0699L86.0391 66.002" stroke="#112F5B" stroke-width="1.009" stroke-miterlimit="10"/>
</g>
</g>
</g>
</g>
</g>
</g>
<defs>
<clipPath id="clip0_167_2383">
<rect width="250" height="84" fill="white"/>
</clipPath>
</defs>
</svg>
