<svg xmlns="http://www.w3.org/2000/svg" width="158" height="106" viewBox="0 0 158 106" fill="none">
<path d="M118.122 26.0789V34.8342C118.122 34.8342 32.1729 67.6667 0.46875 105.999V16.0889C0.487076 16.0889 20.9207 24.7881 118.122 26.0789Z" fill="#112F5B"/>
<path d="M6.93949 21.3828C7.78249 21.5886 59.7186 29.0531 94.7581 28.6228C94.7581 28.6228 9.85334 27.3506 6.31641 50.9788L6.93949 21.3828Z" fill="white"/>
<path d="M114.932 7.78223H102.434V15.4899H114.932V7.78223Z" fill="#112F5B"/>
<path d="M120.541 12.9648H96.8086V21.5518H120.541V12.9648Z" fill="#112F5B"/>
<path d="M108.831 38.7067H108.538C101.024 38.7067 94.9219 32.4769 94.9219 24.8066H122.448C122.448 32.4769 116.345 38.7067 108.831 38.7067Z" fill="#112F5B"/>
<path d="M125.543 16.2383H91.8047V29.39H125.543V16.2383Z" fill="#112F5B"/>
<path d="M94.9766 17.8848H123.877V27.0517L121.898 19.793L94.9766 17.8848Z" fill="white"/>
<path d="M110.606 10.57H106.758V1.96433C106.758 0.879273 107.619 0 108.682 0C109.745 0 110.606 0.879273 110.606 1.96433V10.57Z" fill="#112F5B"/>
<path d="M157.999 4.2275H107.914L113.009 0.298828L151.713 2.26316L157.999 4.2275Z" fill="#112F5B"/>
<path d="M59.3672 4.2275H109.452L104.358 0.298828L65.653 2.26316L59.3672 4.2275Z" fill="#112F5B"/>
<path d="M149.147 2.99246L113.539 1.29004L111.816 2.50606L149.147 2.99246Z" fill="white"/>
<path d="M68.2188 2.99246L105.549 2.50606L103.826 1.29004L68.2188 2.99246Z" fill="white"/>
</svg>