<svg width="30" height="28" viewBox="0 0 30 28" fill="none" xmlns="http://www.w3.org/2000/svg">
<path d="M28.3333 23.9998C28.7581 24.0003 29.1667 24.163 29.4756 24.4546C29.7845 24.7462 29.9704 25.1448 29.9953 25.5688C30.0202 25.9929 29.8822 26.4105 29.6096 26.7362C29.3369 27.062 28.9502 27.2713 28.5283 27.3215L28.3333 27.3332H1.66667C1.24187 27.3327 0.83328 27.17 0.524386 26.8784C0.215493 26.5868 0.0296083 26.1882 0.00471314 25.7642C-0.0201821 25.3401 0.117791 24.9225 0.390441 24.5968C0.663092 24.271 1.04984 24.0617 1.47167 24.0115L1.66667 23.9998H28.3333ZM28.3333 12.3332C28.7754 12.3332 29.1993 12.5088 29.5118 12.8213C29.8244 13.1339 30 13.5578 30 13.9998C30 14.4419 29.8244 14.8658 29.5118 15.1783C29.1993 15.4909 28.7754 15.6665 28.3333 15.6665H1.66667C1.22464 15.6665 0.800716 15.4909 0.488155 15.1783C0.175595 14.8658 0 14.4419 0 13.9998C0 13.5578 0.175595 13.1339 0.488155 12.8213C0.800716 12.5088 1.22464 12.3332 1.66667 12.3332H28.3333ZM28.3333 0.666504C28.7754 0.666504 29.1993 0.842099 29.5118 1.15466C29.8244 1.46722 30 1.89114 30 2.33317C30 2.7752 29.8244 3.19912 29.5118 3.51168C29.1993 3.82424 28.7754 3.99984 28.3333 3.99984H1.66667C1.22464 3.99984 0.800716 3.82424 0.488155 3.51168C0.175595 3.19912 0 2.7752 0 2.33317C0 1.89114 0.175595 1.46722 0.488155 1.15466C0.800716 0.842099 1.22464 0.666504 1.66667 0.666504H28.3333Z" fill="#151515"/>
</svg>
