<svg width="53" height="71" viewBox="0 0 53 71" fill="none" xmlns="http://www.w3.org/2000/svg">
<rect width="53" height="71" fill="#1E1E1E"/>
<g id="&#208;&#158;&#209;&#129;&#208;&#189;&#208;&#190;&#208;&#178;&#208;&#189;&#208;&#181;">
<g id="donation">
<rect x="-164" y="-400" width="1360" height="684" rx="24" fill="#F5F5F5"/>
<g id="Frame 316">
<g id="Frame 313">
<g id="Frame 247">
<rect x="-123" y="-12" width="398" height="96" rx="4" fill="white"/>
<g id="Frame 268">
<path id="Vector" d="M36.0469 11.379C33.7281 14.3549 30.0341 16.7131 26.3462 16.3676C25.859 12.3554 27.6968 8.05761 29.8182 5.39388C32.1308 2.35816 36.1764 0.179353 39.4572 0C39.8458 4.19155 38.3225 8.31003 36.0469 11.379ZM39.4202 17.1581C34.0611 16.8061 29.4605 20.4728 26.9197 20.4728C24.3234 20.4728 20.432 17.3308 16.1953 17.4371C10.7005 17.5102 5.56337 20.8913 2.76971 26.3317C-3.04578 37.1527 1.25879 53.1749 6.84611 61.9964C9.57809 66.354 12.8466 71.1301 17.1573 70.9973C21.2337 70.8179 22.8742 68.0944 27.7893 68.0944C32.766 68.0944 34.1783 70.9973 38.5199 70.891C42.9786 70.8179 45.8031 66.5334 48.5351 62.1758C51.6494 57.2269 52.9322 52.3778 53 52.1386C52.9322 52.0324 44.36 48.4719 44.2984 37.7439C44.2305 28.743 51.0389 24.4585 51.3287 24.2127C47.5052 17.9885 41.4677 17.3308 39.4141 17.1648L39.4202 17.1581Z" fill="#151515"/>
</g>
<rect x="-123" y="-12" width="398" height="96" rx="4" stroke="#151515" stroke-width="2"/>
</g>
</g>
</g>
</g>
</g>
</svg>
