<svg width="75" height="24" viewBox="0 0 75 24" fill="none" xmlns="http://www.w3.org/2000/svg">
<g id="logos:visaelectron" clip-path="url(#clip0_1884_10412)">
<path id="Vector" d="M28.3332 0.425587L18.5631 23.7332H12.1892L7.38122 5.13153C7.08972 3.98857 6.83641 3.56794 5.94938 3.08463C4.49947 2.297 2.1051 1.56039 0.000488281 1.10215L0.142448 0.425587H10.4043C11.7103 0.425587 12.8862 1.29513 13.1852 2.80071L15.7256 16.2892L21.9975 0.425587H28.3332ZM36.9499 0.425587L31.9644 23.7332H25.9339L30.92 0.425587H36.9499ZM53.3076 16.1233C53.3327 9.97302 44.8034 9.63168 44.8591 6.88372C44.8795 6.04829 45.6753 5.15893 47.4173 4.93156C48.2801 4.81992 50.664 4.73101 53.3641 5.97513L54.4205 1.02957C52.9697 0.504875 51.1027 0 48.7803 0C42.8192 0 38.626 3.16625 38.5925 7.70371C38.5534 11.06 41.5876 12.9306 43.8695 14.0485C46.2198 15.19 47.008 15.9237 46.9972 16.9439C46.9803 18.5078 45.12 19.2001 43.3905 19.2257C40.3578 19.2738 38.5998 18.4061 37.1974 17.7528L36.1028 22.8622C37.5136 23.5087 40.1138 24.0704 42.807 24.099C49.1441 24.099 53.2889 20.9689 53.3076 16.1233ZM69.0485 23.7332H74.624L69.753 0.425587H64.609C63.4488 0.425587 62.4737 1.09895 62.0412 2.13406L52.9931 23.7332H59.3253L60.5813 20.2515H68.3177L69.0485 23.7332ZM62.3178 15.4753L65.4928 6.72253L67.3167 15.4753H62.3175H62.3178Z" fill="#1A1F71"/>
</g>
<defs>
<clipPath id="clip0_1884_10412">
<rect width="74.7692" height="24" fill="white" transform="translate(0.000488281)"/>
</clipPath>
</defs>
</svg>
