<svg width="39" height="24" viewBox="0 0 39 24" fill="none" xmlns="http://www.w3.org/2000/svg">
<g id="logos:mastercard" clip-path="url(#clip0_1884_10414)">
<path id="Vector" d="M13.9688 2.53052H24.3215V21.1326H13.9688V2.53052Z" fill="#FF5F00"/>
<path id="Vector_2" d="M14.6259 11.8318C14.6259 8.05222 16.4006 4.69982 19.1284 2.53062C17.1237 0.95308 14.5931 0 11.8324 0C5.29183 0 0.000488281 5.29134 0.000488281 11.8318C0.000488281 18.372 5.29183 23.6635 11.8322 23.6635C14.593 23.6635 17.1236 22.7104 19.1284 21.1327C16.4006 18.9965 14.6259 15.6113 14.6259 11.8318Z" fill="#EB001B"/>
<path id="Vector_3" d="M38.2891 11.8318C38.2891 18.372 32.9977 23.6635 26.4573 23.6635C23.6966 23.6635 21.166 22.7104 19.1611 21.1327C21.9219 18.9637 23.6638 15.6113 23.6638 11.8318C23.6638 8.05222 21.8889 4.69982 19.1611 2.53062C21.1658 0.95308 23.6966 0 26.4573 0C32.9977 0 38.2891 5.32428 38.2891 11.8318Z" fill="#F79E1B"/>
</g>
<defs>
<clipPath id="clip0_1884_10414">
<rect width="38.069" height="24" fill="white" transform="translate(0.000488281)"/>
</clipPath>
</defs>
</svg>
