<svg width="83" height="83" viewBox="0 0 83 83" fill="none" xmlns="http://www.w3.org/2000/svg">
<g id="uiw:pay">
<path id="Vector" d="M48.4305 35.4286C48.1017 35.4264 47.7854 35.5543 47.5506 35.7845C47.3158 36.0146 47.1816 36.3283 47.1772 36.657V45.8368C47.1816 46.1663 47.3164 46.4806 47.5521 46.7109C47.7878 46.9411 48.1052 47.0686 48.4347 47.0652H76.0861C76.4156 47.0686 76.733 46.9411 76.9687 46.7109C77.2044 46.4806 77.3392 46.1663 77.3436 45.8368V36.657C77.3392 36.3276 77.2044 36.0133 76.9687 35.783C76.733 35.5528 76.4156 35.4253 76.0861 35.4286H48.4305ZM65.3874 6.22925C69.2137 6.41185 71.9651 7.16715 73.7082 8.76905C75.4304 10.3543 76.3144 12.6493 76.4886 15.6871V24.3896C76.4799 25.1308 76.1773 25.8381 75.6474 26.3563C75.1176 26.8746 74.4036 27.1613 73.6625 27.1535C73.2952 27.1579 72.9306 27.0899 72.5895 26.9534C72.2485 26.8169 71.9377 26.6145 71.6749 26.3578C71.412 26.1012 71.2024 25.7953 71.0578 25.4576C70.9132 25.1199 70.8365 24.757 70.8322 24.3896L70.8363 15.8448C70.7451 14.2678 70.3674 13.2884 69.8279 12.7904C69.305 12.309 67.7114 11.8774 65.2505 11.7529H10.9851C8.7565 11.8359 7.30815 12.2592 6.6068 12.8609C6.0673 13.3216 5.6606 14.5915 5.65645 16.7868L5.644 65.6323C5.8515 67.7654 6.32045 69.1889 6.9222 69.8986C7.3787 70.438 8.79385 70.9775 10.8772 71.2431H65.3086C67.8567 71.2929 69.3589 70.9112 69.8652 70.4007C70.4255 69.8322 70.8322 68.3382 70.8322 65.8938V57.4071C70.8322 55.884 72.098 54.6431 73.6625 54.6431C75.2229 54.6431 76.4886 55.884 76.4886 57.4071V65.8938C76.4886 69.6288 75.7251 72.4218 73.9364 74.2353C72.0938 76.1028 69.1639 76.8498 65.2505 76.7668L10.541 76.7544C6.81845 76.3228 4.15 75.3018 2.56055 73.4219C1.1205 71.7204 0.31955 69.2926 0 65.8979V16.7827C0.0083 13.1473 0.8798 10.4124 2.8801 8.70265C4.7144 7.12565 7.3621 6.3579 10.8772 6.2251H65.3874V6.22925ZM76.0861 29.9008C79.9041 29.9008 83 32.9262 83 36.657V45.8368C83 49.5677 79.9041 52.5931 76.0861 52.5931H48.4347C44.6166 52.5931 41.5208 49.5635 41.5208 45.8368V36.657C41.5208 32.9262 44.6166 29.9008 48.4347 29.9008H76.0861ZM55.3486 37.9519C53.4396 37.9519 51.8916 39.4458 51.8916 41.2843C51.8916 43.1269 53.4396 44.6167 55.3486 44.6167C57.2575 44.6167 58.8055 43.1227 58.8055 41.2843C58.8055 39.4417 57.2575 37.9477 55.3486 37.9477V37.9519Z" fill="#151515"/>
</g>
</svg>
